HIERARCHY
ROOT Hips
{
  OFFSET 49.2464 99.9748 -13.693
  CHANNELS 6 Xposition Yposition Zposition Zrotation Xrotation Yrotation
  JOINT spine
  {
    OFFSET 0 8.81705 0.507024
    CHANNELS 3 Zrotation Xrotation Yrotation
    JOINT spine1
    {
      OFFSET 0 10.7766 0
      CHANNELS 3 Zrotation Xrotation Yrotation
      JOINT spine2
      {
        OFFSET 0 10.3259 0
        CHANNELS 3 Zrotation Xrotation Yrotation
        JOINT Neck
        {
          OFFSET 0 26.511 1.26395
          CHANNELS 3 Zrotation Xrotation Yrotation
          JOINT Head
          {
            OFFSET 0 8.00966 0
            CHANNELS 3 Zrotation Xrotation Yrotation
            End Site
            {
              OFFSET 0 19.3879 -6.39386
            }
          }
        }
        JOINT RightShoulder
        {
          OFFSET -4.34795 11.1512 -0.605422
          CHANNELS 3 Zrotation Xrotation Yrotation
          JOINT RightArm
          {
            OFFSET 0 14.6258 0
            CHANNELS 3 Zrotation Xrotation Yrotation
            JOINT RightArmRoll
            {
              OFFSET 0 7.3834 0
              CHANNELS 3 Zrotation Xrotation Yrotation
              JOINT RightForeArm
              {
                OFFSET 0 21.5052 0
                CHANNELS 3 Zrotation Xrotation Yrotation
                JOINT RightForeArmRoll
                {
                  OFFSET 0 8.28532 0
                  CHANNELS 3 Zrotation Xrotation Yrotation
                  JOINT RightHand
                  {
                    OFFSET 0 16.6268 0
                    CHANNELS 3 Zrotation Xrotation Yrotation
                    End Site
                    {
                      OFFSET 0 0 0
                    }
                  }
                }
              }
            }
          }
        }
        JOINT LeftShoulder
        {
          OFFSET 4.34795 11.1512 -0.605422
          CHANNELS 3 Zrotation Xrotation Yrotation
          JOINT LeftArm
          {
            OFFSET 0 14.6258 0
            CHANNELS 3 Zrotation Xrotation Yrotation
            JOINT LeftArmRoll
            {
              OFFSET 0 7.38339 0
              CHANNELS 3 Zrotation Xrotation Yrotation
              JOINT LeftForeArm
              {
                OFFSET 0 21.5052 0
                CHANNELS 3 Zrotation Xrotation Yrotation
                JOINT LeftForeArmRoll
                {
                  OFFSET 0 8.28532 0
                  CHANNELS 3 Zrotation Xrotation Yrotation
                  JOINT LeftHand
                  {
                    OFFSET 0 16.6268 0
                    CHANNELS 3 Zrotation Xrotation Yrotation
                    End Site
                    {
                      OFFSET 0 0 0
                    }
                  }
                }
              }
            }
          }
        }
      }
    }
  }
  JOINT RightUpLeg
  {
    OFFSET -7.8151 -1.43309 -1.20217
    CHANNELS 3 Zrotation Xrotation Yrotation
    JOINT RightUpLegRoll
    {
      OFFSET 0 19.4959 0
      CHANNELS 3 Zrotation Xrotation Yrotation
      JOINT RightLeg
      {
        OFFSET 0 -24.1427 0
        CHANNELS 3 Zrotation Xrotation Yrotation
        JOINT RightLegRoll
        {
          OFFSET 0 24.2217 0
          CHANNELS 3 Zrotation Xrotation Yrotation
          JOINT RightFoot
          {
            OFFSET 0 20.1605 0
            CHANNELS 3 Zrotation Xrotation Yrotation
            JOINT RightToeBase
            {
              OFFSET 0 16.8532 0
              CHANNELS 3 Zrotation Xrotation Yrotation
              End Site
              {
                OFFSET 0.00714343 8.16187 -0.94078
              }
            }
          }
        }
      }
    }
  }
  JOINT LeftUpLeg
  {
    OFFSET 7.8151 -1.43309 -1.20217
    CHANNELS 3 Zrotation Xrotation Yrotation
    JOINT LeftUpLegRoll
    {
      OFFSET 0 19.496 0
      CHANNELS 3 Zrotation Xrotation Yrotation
      JOINT LeftLeg
      {
        OFFSET 0 24.1426 0
        CHANNELS 3 Zrotation Xrotation Yrotation
        JOINT LeftLegRoll
        {
          OFFSET 0 24.4456 0
          CHANNELS 3 Zrotation Xrotation Yrotation
          JOINT LeftFoot
          {
            OFFSET 0 19.9366 0
            CHANNELS 3 Zrotation Xrotation Yrotation
            JOINT LeftToeBase
            {
              OFFSET 0 16.8532 0
              CHANNELS 3 Zrotation Xrotation Yrotation
              End Site
              {
                OFFSET -0.0320138 8.16187 -0.940781
              }
            }
          }
        }
      }
    }
  }
}
MOTION
Frames: 12
Frame Time: 0.00208333
45.3098 107.67 -4.46309 0.610423 2.94736 4.50416 -0.118033 -2.40449 0.175078 -0.23046 -0.806477 0.360679 -0.234805 0.838576 0.364575 -8.99464 -6.4294 -2.15831 4.65028 8.0885 -2.70681 41.2211 -8.19212 -4.58322 102.724 -34.5428 -65.4675 2.01821e-007 -4.92195e-007 -7.94283e-007 -91.2848 70.8099 73.1694 -6.79498e-006 8.86011e-007 -3.00783 8.02896 -4.95146 0.697663 -50.3301 -8.31426 4.94987 -99.7683 -13.0975 37.2864 3.87447e-006 -1.35161e-006 1.86236e-006 -7.15049 72.9557 6.6591 7.24366e-006 -3.95987e-006 3.0075 -8.02888 -4.95141 -0.697687 172.302 11.137 6.21146 180 7.01475e-015 178.647 175.594 29.4973 179.832 1.37498e-006 -4.95266e-006 0.435518 -17.6311 67.0857 18.8141 8.13623 25.2287 -3.49331 -175.728 12.761 -1.81361 4.54188e-006 -4.6773e-006 -1.13301 -4.73039 -26.5435 -0.243344 3.63445e-006 -4.01359e-006 -0.375374 18.7503 68.2802 -19.7578 -8.13649 25.2327 3.48774 
45.3248 107.432 -4.53647 0.612543 2.96819 4.5059 -0.121663 -2.4036 0.17333 -0.237374 -0.804748 0.357383 -0.24168 0.840305 0.361394 -8.94045 -6.3712 -2.15323 4.60508 8.01267 -2.7009 41.2495 -8.22553 -4.61268 102.821 -34.4144 -65.0968 2.01821e-007 -4.92195e-007 -7.94283e-007 -90.8194 71.0197 72.9638 -6.79498e-006 8.86011e-007 -3.00783 8.02896 -4.95146 0.697663 -50.3304 -8.30996 4.94673 -99.8207 -13.0567 37.0808 3.87447e-006 -1.35161e-006 1.86236e-006 -7.3194 72.8406 6.76731 7.24366e-006 -3.95987e-006 3.0075 -8.02888 -4.95141 -0.697687 172.311 11.1871 6.19969 180 7.01475e-015 178.647 175.611 29.5564 179.827 1.37498e-006 -4.95266e-006 0.435553 -17.635 67.0903 18.8177 8.13649 25.2327 -3.48774 -175.753 12.8246 -1.79575 4.54188e-006 -4.6773e-006 -1.13267 -4.72545 -26.5837 -0.24298 3.63445e-006 -4.01359e-006 -0.37565 18.7505 68.2804 -19.758 -8.13649 25.2327 3.48774 
45.3027 107.194 -4.58579 0.61273 2.98936 4.50939 -0.124775 -2.40212 0.172192 -0.243074 -0.801831 0.355205 -0.247354 0.843222 0.359312 -8.88496 -6.31496 -2.15116 4.55199 7.93497 -2.6981 41.2731 -8.26574 -4.64782 102.921 -34.2814 -64.7272 2.01821e-007 -4.92195e-007 -7.94283e-007 -90.3454 71.2307 72.7499 -6.79498e-006 8.86011e-007 -3.00783 8.02896 -4.95146 0.697663 -50.3315 -8.305 4.94311 -99.876 -13.0098 36.8719 3.87447e-006 -1.35161e-006 1.86236e-006 -7.48648 72.7295 6.87552 7.24366e-006 -3.95987e-006 3.0075 -8.02888 -4.95141 -0.697687 172.324 11.2383 6.18398 180 7.01476e-015 178.648 175.631 29.6055 179.82 1.37498e-006 -4.95266e-006 0.434582 -17.6301 67.0797 18.8104 8.13512 25.2123 -3.48112 -175.777 12.8892 -1.77594 4.54188e-006 -4.6773e-006 -1.13252 -4.71648 -26.614 -0.240516 3.63445e-006 -4.01359e-006 -0.375196 18.7385 68.264 -19.7446 -8.13532 25.2152 3.48845 
45.2912 106.963 -4.62286 0.611927 3.01051 4.51424 -0.127619 -2.40003 0.17157 -0.248029 -0.797701 0.353972 -0.252295 0.847351 0.358162 -8.82869 -6.26066 -2.15152 4.49165 7.85528 -2.69782 41.2907 -8.31289 -4.68879 103.025 -34.1411 -64.3604 2.01821e-007 -4.92195e-007 -7.94283e-007 -89.8632 71.4438 72.5292 -6.79498e-006 8.86011e-007 -3.00783 8.02896 -4.95146 0.697663 -50.3322 -8.30122 4.9403 -99.9344 -12.9557 36.6604 3.87447e-006 -1.35161e-006 1.86236e-006 -7.65329 72.6207 6.98435 7.24366e-006 -3.95987e-006 3.0075 -8.02888 -4.95141 -0.697687 172.34 11.2873 6.1633 180 7.01476e-015 178.649 175.654 29.633 179.81 1.37498e-006 -4.95265e-006 0.431793 -17.6095 67.042 18.7836 8.13086 25.1489 -3.47392 -175.801 12.9508 -1.75221 4.54188e-006 -4.6773e-006 -1.13268 -4.70291 -26.6217 -0.235163 3.63445e-006 -4.01359e-006 -0.373327 18.7062 68.2194 -19.7084 -8.13209 25.1674 3.49041 
45.2784 106.719 -4.68077 0.610136 3.03187 4.52036 -0.130206 -2.39743 0.1714 -0.252298 -0.792517 0.353565 -0.25656 0.852534 0.357826 -8.77156 -6.20783 -2.15407 4.42477 7.77365 -2.69981 41.3035 -8.36606 -4.7348 103.131 -33.9944 -63.9956 2.01821e-007 -4.92195e-007 -7.94283e-007 -89.3712 71.659 72.3 -6.79498e-006 8.86011e-007 -3.00783 8.02896 -4.95146 0.697663 -50.3328 -8.29817 4.93799 -99.9955 -12.8952 36.4466 3.87447e-006 -1.35161e-006 1.86236e-006 -7.81883 72.5142 7.09305 7.24366e-006 -3.95987e-006 3.0075 -8.02888 -4.95141 -0.697687 172.359 11.3356 6.1388 180 7.01476e-015 178.649 175.681 29.6448 179.797 1.37498e-006 -4.95265e-006 0.427622 -17.577 66.9835 18.7422 8.12442 25.0526 -3.46611 -175.825 13.0113 -1.7255 4.54188e-006 -4.6773e-006 -1.13309 -4.68547 -26.6131 -0.2275 3.63445e-006 -4.01358e-006 -0.370392 18.6583 68.1531 -19.6549 -8.12729 25.0964 3.49333 
45.2999 106.452 -4.83581 0.607354 3.05369 4.52761 -0.132549 -2.39438 0.171616 -0.25594 -0.786438 0.353867 -0.260206 0.858613 0.358189 -8.71346 -6.15603 -2.15857 4.35209 7.69013 -2.70382 41.3124 -8.42431 -4.78509 103.24 -33.842 -63.6317 2.01821e-007 -4.92195e-007 -7.94283e-007 -88.8675 71.8758 72.0604 -6.79498e-006 8.86011e-007 -3.00783 8.02896 -4.95146 0.697663 -50.3338 -8.29541 4.93589 -100.058 -12.8292 36.2307 3.87447e-006 -1.35161e-006 1.86236e-006 -7.98217 72.4103 7.2009 7.24366e-006 -3.95987e-006 3.0075 -8.02888 -4.95141 -0.697687 172.38 11.3848 6.1116 180 7.01476e-015 178.65 175.71 29.6469 179.782 1.37498e-006 -4.95265e-006 0.422501 -17.5365 66.9108 18.6909 8.11648 24.9333 -3.45766 -175.849 13.0726 -1.69678 4.54188e-006 -4.6773e-006 -1.13367 -4.66491 -26.5947 -0.218105 3.63445e-006 -4.01358e-006 -0.366738 18.5996 68.0714 -19.5894 -8.12138 25.009 3.49692 
45.2801 106.203 -4.87333 0.603583 3.07619 4.53587 -0.134661 -2.39097 0.172155 -0.259012 -0.779622 0.354761 -0.26329 0.865429 0.359134 -8.65432 -6.10483 -2.16476 4.27434 7.60475 -2.7096 41.3186 -8.48669 -4.83887 103.351 -33.6847 -63.2678 2.01821e-007 -4.92195e-007 -7.94283e-007 -88.3502 72.094 71.8087 -6.79498e-006 8.86011e-007 -3.00783 8.02896 -4.95146 0.697663 -50.3355 -8.2925 4.93367 -100.122 -12.7587 36.0131 3.87447e-006 -1.35161e-006 1.86236e-006 -8.14237 72.3089 7.30716 7.24366e-006 -3.95987e-006 3.0075 -8.02888 -4.95141 -0.697687 172.403 11.4365 6.08286 180 7.01476e-015 178.65 175.74 29.6451 179.767 1.37498e-006 -4.95265e-006 0.416864 -17.492 66.8301 18.6344 8.10772 24.8013 -3.44851 -175.873 13.1364 -1.667 4.54188e-006 -4.6773e-006 -1.13438 -4.64194 -26.5728 -0.207555 3.63445e-006 -4.01358e-006 -0.362714 18.535 67.9806 -19.5173 -8.11482 24.9123 3.50089 
45.257 105.939 -4.88089 0.598821 3.09963 4.54502 -0.136555 -2.38727 0.172951 -0.261575 -0.772227 0.356127 -0.265869 0.872823 0.360543 -8.59404 -6.05377 -2.17242 4.19224 7.51755 -2.7169 41.323 -8.55228 -4.89537 103.463 -33.5232 -62.9029 2.01821e-007 -4.92195e-007 -7.94283e-007 -87.8174 72.3132 71.5427 -6.79498e-006 8.86011e-007 -3.00783 8.02896 -4.95146 0.697663 -50.3382 -8.28898 4.93104 -100.187 -12.6846 35.7939 3.87447e-006 -1.35161e-006 1.86236e-006 -8.29851 72.2103 7.41114 7.24366e-006 -3.95987e-006 3.0075 -8.02888 -4.95141 -0.697687 172.426 11.4924 6.0537 180 7.01476e-015 178.651 175.77 29.6454 179.751 1.37498e-006 -4.95264e-006 0.411144 -17.4473 66.7481 18.5774 8.09883 24.6664 -3.43864 -175.896 13.2045 -1.63713 4.54188e-006 -4.6773e-006 -1.13514 -4.61732 -26.5538 -0.196424 3.63445e-006 -4.01358e-006 -0.358667 18.469 67.887 -19.4436 -8.10809 24.8133 3.50497 
45.2451 105.675 -4.96141 0.593068 3.12424 4.55493 -0.138243 -2.38336 0.17394 -0.263686 -0.764411 0.35785 -0.268001 0.880637 0.362301 -8.53253 -6.00241 -2.1813 4.10654 7.42859 -2.72547 41.3268 -8.62014 -4.9538 103.577 -33.3582 -62.5359 2.01821e-007 -4.92195e-007 -7.94283e-007 -87.2669 72.5332 71.2603 -6.79498e-006 8.86011e-007 -3.00783 8.02896 -4.95146 0.697663 -50.3423 -8.28441 4.92769 -100.251 -12.6076 35.5734 3.87447e-006 -1.35161e-006 1.86236e-006 -8.4497 72.1145 7.51216 7.24366e-006 -3.95987e-006 3.0075 -8.02888 -4.95141 -0.697687 172.449 11.5539 6.02529 180 7.01477e-015 178.652 175.799 29.6538 179.736 1.37498e-006 -4.95264e-006 0.405777 -17.4059 66.671 18.5241 8.09049 24.5388 -3.42797 -175.917 13.2788 -1.60811 4.54188e-006 -4.6773e-006 -1.1359 -4.59174 -26.5441 -0.185283 3.63445e-006 -4.01358e-006 -0.354946 18.406 67.7971 -19.3733 -8.10167 24.719 3.50885 
45.237 105.411 -5.02805 0.586324 3.15025 4.56549 -0.139737 -2.37932 0.175057 -0.265404 -0.756334 0.359811 -0.269743 0.888714 0.364291 -8.46972 -5.95031 -2.19114 4.01796 7.33789 -2.73506 41.3309 -8.68932 -5.01339 103.693 -33.1902 -62.1657 2.01821e-007 -4.92195e-007 -7.94283e-007 -86.6967 72.7537 70.9594 -6.79498e-006 8.86011e-007 -3.00783 8.02896 -4.95146 0.697663 -50.3482 -8.27834 4.9233 -100.315 -12.5289 35.352 3.87447e-006 -1.35161e-006 1.86236e-006 -8.59504 72.0216 7.60954 7.24366e-006 -3.95987e-006 3.0075 -8.02888 -4.95141 -0.697687 172.472 11.6227 5.99875 180 7.01477e-015 178.653 175.825 29.6761 179.723 1.37498e-006 -4.95264e-006 0.401195 -17.3714 66.6055 18.4791 8.08336 24.4285 -3.41646 -175.936 13.361 -1.58091 4.54188e-006 -4.6773e-006 -1.1366 -4.56594 -26.5501 -0.174701 3.63445e-006 -4.01358e-006 -0.351898 18.3503 67.7172 -19.3114 -8.09602 24.6363 3.51226 
45.2214 105.147 -5.08318 0.578587 3.17791 4.57658 -0.141051 -2.37523 0.176239 -0.266787 -0.748153 0.361892 -0.271151 0.896894 0.366395 -8.40551 -5.89702 -2.20172 3.92724 7.24551 -2.74542 41.3364 -8.75892 -5.07335 103.809 -33.0198 -61.7913 2.01821e-007 -4.92195e-007 -7.94283e-007 -86.1044 72.9743 70.6377 -6.79498e-006 8.86011e-007 -3.00783 8.02896 -4.95146 0.697663 -50.3561 -8.27033 4.91758 -100.377 -12.4493 35.1298 3.87447e-006 -1.35161e-006 1.86236e-006 -8.73367 71.9317 7.70262 7.24366e-006 -3.95987e-006 3.0075 -8.02888 -4.95141 -0.697687 172.493 11.7003 5.97523 180 7.01477e-015 178.654 175.849 29.7184 179.712 1.37498e-006 -4.95263e-006 0.397831 -17.3472 66.5579 18.4464 8.07809 24.3455 -3.40403 -175.954 13.4531 -1.55648 4.54188e-006 -4.6773e-006 -1.13717 -4.54062 -26.5782 -0.165246 3.63445e-006 -4.01357e-006 -0.349873 18.306 67.6536 -19.2624 -8.09164 24.5722 3.51491 
45.26 104.846 -5.17467 0.569858 3.20746 4.58806 -0.142196 -2.37118 0.177419 -0.267893 -0.740028 0.363976 -0.272283 0.905019 0.368498 -8.33982 -5.84209 -2.21279 3.83513 7.15148 -2.75629 41.3445 -8.82798 -5.1329 103.926 -32.8477 -61.4115 2.01821e-007 -4.92195e-007 -7.94283e-007 -85.4876 73.1946 70.2927 -6.79498e-006 8.86011e-007 -3.00783 8.02896 -4.95146 0.697663 -50.3665 -8.25993 4.91021 -100.437 -12.3697 34.9071 3.87447e-006 -1.35161e-006 1.86236e-006 -8.86473 71.8449 7.79075 7.24366e-006 -3.95987e-006 3.0075 -8.02888 -4.95141 -0.697687 172.512 11.7884 5.95589 180 7.01478e-015 178.656 175.868 29.7864 179.704 1.37498e-006 -4.95263e-006 0.396121 -17.3367 66.5347 18.4305 8.07534 24.3 -3.39059 -175.969 13.5567 -1.53579 4.54188e-006 -4.6773e-006 -1.13754 -4.5165 -26.6348 -0.157483 3.63445e-006 -4.01357e-006 -0.349218 18.2772 67.6128 -19.2309 -8.08901 24.5338 3.51649 
